<svg width="30" height="30" viewBox="0 0 30 30" fill="none" xmlns="http://www.w3.org/2000/svg">
<mask id="mask0_256_5386" style="mask-type:alpha" maskUnits="userSpaceOnUse" x="0" y="0" width="30" height="30">
<rect width="30" height="30" fill="#D9D9D9"/>
</mask>
<g mask="url(#mask0_256_5386)">
<path d="M11.25 26.25V22.5H2.5V20H11.25C11.9375 20 12.5262 20.2446 13.0163 20.7337C13.5054 21.2237 13.75 21.8125 13.75 22.5V26.25H11.25ZM16.25 26.25V22.5C16.25 21.8125 16.495 21.2237 16.985 20.7337C17.4742 20.2446 18.0625 20 18.75 20H27.5V22.5H18.75V26.25H16.25ZM7.5 18.75C6.45833 18.75 5.57292 18.3854 4.84375 17.6562C4.11458 16.9271 3.75 16.0417 3.75 15V10H26.25V15C26.25 16.0417 25.8854 16.9271 25.1562 17.6562C24.4271 18.3854 23.5417 18.75 22.5 18.75H7.5ZM3.75 8.75V6.25H11.25V5C11.25 4.64583 11.37 4.34875 11.61 4.10875C11.8492 3.86958 12.1458 3.75 12.5 3.75H17.5C17.8542 3.75 18.1513 3.86958 18.3913 4.10875C18.6304 4.34875 18.75 4.64583 18.75 5V6.25H26.25V8.75H3.75Z" fill="#1C1B1F"/>
</g>
</svg>
