<svg width="30" height="30" viewBox="0 0 30 30" fill="none" xmlns="http://www.w3.org/2000/svg">
<mask id="mask0_256_5380" style="mask-type:alpha" maskUnits="userSpaceOnUse" x="0" y="0" width="30" height="30">
<rect width="30" height="30" fill="#D9D9D9"/>
</mask>
<g mask="url(#mask0_256_5380)">
<path d="M5 26.25V23.75H25V26.25H5ZM10 21.25C8.625 21.25 7.44792 20.7604 6.46875 19.7812C5.48958 18.8021 5 17.625 5 16.25V3.75H11.25V6.75L9 8.5625C8.95833 8.60417 8.875 8.77083 8.75 9.0625V14.375C8.75 14.5417 8.8125 14.6875 8.9375 14.8125C9.0625 14.9375 9.20833 15 9.375 15H14.375C14.5417 15 14.6875 14.9375 14.8125 14.8125C14.9375 14.6875 15 14.5417 15 14.375V9.0625C15 9.02083 14.9167 8.85417 14.75 8.5625L12.5 6.75V3.75H25C25.6875 3.75 26.2763 3.99458 26.7663 4.48375C27.2554 4.97375 27.5 5.5625 27.5 6.25V10C27.5 10.6875 27.2554 11.2758 26.7663 11.765C26.2763 12.255 25.6875 12.5 25 12.5H22.5V16.25C22.5 17.625 22.0104 18.8021 21.0312 19.7812C20.0521 20.7604 18.875 21.25 17.5 21.25H10ZM22.5 10H25V6.25H22.5V10Z" fill="#1C1B1F"/>
</g>
</svg>
