<svg width="30" height="30" viewBox="0 0 30 30" fill="none" xmlns="http://www.w3.org/2000/svg">
<mask id="mask0_256_5405" style="mask-type:alpha" maskUnits="userSpaceOnUse" x="0" y="0" width="30" height="30">
<rect width="30" height="30" fill="#D9D9D9"/>
</mask>
<g mask="url(#mask0_256_5405)">
<path d="M5.46872 26.25L3.71872 24.5L16.5312 11.6875C16.1562 10.8125 16.1041 9.82292 16.375 8.71875C16.6458 7.61458 17.2396 6.625 18.1562 5.75C19.2604 4.64583 20.4896 4 21.8437 3.8125C23.1979 3.625 24.3021 3.95833 25.1562 4.8125C26.0104 5.66667 26.3437 6.77083 26.1562 8.125C25.9687 9.47917 25.3229 10.7083 24.2187 11.8125C23.3437 12.7292 22.3541 13.3229 21.25 13.5938C20.1458 13.8646 19.1562 13.8125 18.2812 13.4375L16.7187 15L26.2187 24.5L24.4687 26.25L14.9687 16.8125L5.46872 26.25ZM9.15622 15.5625L5.40622 11.8125C4.28122 10.6875 3.71872 9.34375 3.71872 7.78125C3.71872 6.21875 4.28122 4.875 5.40622 3.75L13.1562 11.5625L9.15622 15.5625Z" fill="#1C1B1F"/>
</g>
</svg>
