<svg width="25" height="25" viewBox="0 0 25 25" fill="none" xmlns="http://www.w3.org/2000/svg">
<mask id="mask0_254_5814" style="mask-type:alpha" maskUnits="userSpaceOnUse" x="0" y="0" width="25" height="25">
<rect width="25" height="25" fill="#D9D9D9"/>
</mask>
<g mask="url(#mask0_254_5814)">
<path d="M5.20833 22.9167C4.63542 22.9167 4.14479 22.7129 3.73646 22.3053C3.32882 21.897 3.125 21.4063 3.125 20.8334V8.33341C3.125 7.7605 3.32882 7.27022 3.73646 6.86258C4.14479 6.45425 4.63542 6.25008 5.20833 6.25008H7.29167C7.29167 4.80911 7.79965 3.58064 8.81563 2.56466C9.8309 1.54939 11.059 1.04175 12.5 1.04175C13.941 1.04175 15.1694 1.54939 16.1854 2.56466C17.2007 3.58064 17.7083 4.80911 17.7083 6.25008H19.7917C20.3646 6.25008 20.8552 6.45425 21.2635 6.86258C21.6712 7.27022 21.875 7.7605 21.875 8.33341V20.8334C21.875 21.4063 21.6712 21.897 21.2635 22.3053C20.8552 22.7129 20.3646 22.9167 19.7917 22.9167H5.20833ZM5.20833 20.8334H19.7917V8.33341H5.20833V20.8334ZM12.5 14.5834C13.941 14.5834 15.1694 14.0754 16.1854 13.0595C17.2007 12.0442 17.7083 10.8161 17.7083 9.37508H15.625C15.625 10.2431 15.3212 10.981 14.7135 11.5886C14.1059 12.1963 13.3681 12.5001 12.5 12.5001C11.6319 12.5001 10.8941 12.1963 10.2865 11.5886C9.67882 10.981 9.375 10.2431 9.375 9.37508H7.29167C7.29167 10.8161 7.79965 12.0442 8.81563 13.0595C9.8309 14.0754 11.059 14.5834 12.5 14.5834ZM9.375 6.25008H15.625C15.625 5.38203 15.3212 4.64418 14.7135 4.03654C14.1059 3.4289 13.3681 3.12508 12.5 3.12508C11.6319 3.12508 10.8941 3.4289 10.2865 4.03654C9.67882 4.64418 9.375 5.38203 9.375 6.25008Z" fill="#1C1B1F"/>
</g>
</svg>
