<svg width="25" height="25" viewBox="0 0 25 25" fill="none" xmlns="http://www.w3.org/2000/svg">
<mask id="mask0_254_5806" style="mask-type:alpha" maskUnits="userSpaceOnUse" x="0" y="0" width="25" height="25">
<rect width="25" height="25" fill="#D9D9D9"/>
</mask>
<g mask="url(#mask0_254_5806)">
<path d="M6.25 20.8334C5.38195 20.8334 4.6441 20.5296 4.03646 19.922C3.42882 19.3143 3.12501 18.5765 3.12501 17.7084H1.04167V6.25008C1.04167 5.67716 1.24584 5.18689 1.65417 4.77925C2.06181 4.37091 2.55209 4.16675 3.12501 4.16675H17.7083V8.33341H20.8333L23.9583 12.5001V17.7084H21.875C21.875 18.5765 21.5712 19.3143 20.9635 19.922C20.3559 20.5296 19.6181 20.8334 18.75 20.8334C17.8819 20.8334 17.1441 20.5296 16.5365 19.922C15.9288 19.3143 15.625 18.5765 15.625 17.7084H9.375C9.375 18.5765 9.07119 19.3143 8.46355 19.922C7.85591 20.5296 7.11806 20.8334 6.25 20.8334ZM6.25 18.7501C6.54514 18.7501 6.79271 18.6501 6.99271 18.4501C7.19202 18.2508 7.29167 18.0036 7.29167 17.7084C7.29167 17.4133 7.19202 17.1661 6.99271 16.9667C6.79271 16.7667 6.54514 16.6667 6.25 16.6667C5.95487 16.6667 5.7073 16.7667 5.5073 16.9667C5.30799 17.1661 5.20834 17.4133 5.20834 17.7084C5.20834 18.0036 5.30799 18.2508 5.5073 18.4501C5.7073 18.6501 5.95487 18.7501 6.25 18.7501ZM3.12501 15.6251H3.95834C4.25348 15.3126 4.59202 15.0608 4.97396 14.8699C5.35591 14.6789 5.78125 14.5834 6.25 14.5834C6.71875 14.5834 7.1441 14.6789 7.52605 14.8699C7.90799 15.0608 8.24653 15.3126 8.54167 15.6251H15.625V6.25008H3.12501V15.6251ZM18.75 18.7501C19.0451 18.7501 19.2924 18.6501 19.4917 18.4501C19.6917 18.2508 19.7917 18.0036 19.7917 17.7084C19.7917 17.4133 19.6917 17.1661 19.4917 16.9667C19.2924 16.7667 19.0451 16.6667 18.75 16.6667C18.4549 16.6667 18.2076 16.7667 18.0083 16.9667C17.8083 17.1661 17.7083 17.4133 17.7083 17.7084C17.7083 18.0036 17.8083 18.2508 18.0083 18.4501C18.2076 18.6501 18.4549 18.7501 18.75 18.7501ZM17.7083 13.5417H22.1354L19.7917 10.4167H17.7083V13.5417Z" fill="#1C1B1F"/>
</g>
</svg>
