<svg width="28" height="28" viewBox="0 0 28 28" fill="none" xmlns="http://www.w3.org/2000/svg">
<mask id="mask0_282_5164" style="mask-type:alpha" maskUnits="userSpaceOnUse" x="0" y="0" width="28" height="28">
<rect width="28" height="28" fill="#D9D9D9"/>
</mask>
<g mask="url(#mask0_282_5164)">
<path d="M5.10428 24.5L3.47095 22.8667L15.4293 10.9083C15.0793 10.0917 15.0307 9.16806 15.2834 8.1375C15.5362 7.10694 16.0904 6.18333 16.9459 5.36667C17.9765 4.33611 19.1237 3.73333 20.3876 3.55833C21.6515 3.38333 22.6821 3.69444 23.4793 4.49167C24.2765 5.28889 24.5876 6.31944 24.4126 7.58333C24.2376 8.84722 23.6348 9.99444 22.6043 11.025C21.7876 11.8806 20.864 12.4347 19.8334 12.6875C18.8029 12.9403 17.8793 12.8917 17.0626 12.5417L15.6043 14L24.4709 22.8667L22.8376 24.5L13.9709 15.6917L5.10428 24.5ZM8.54595 14.525L5.04595 11.025C3.99595 9.975 3.47095 8.72083 3.47095 7.2625C3.47095 5.80417 3.99595 4.55 5.04595 3.5L12.2793 10.7917L8.54595 14.525Z" fill="white"/>
</g>
</svg>
