<svg width="30" height="30" viewBox="0 0 30 30" fill="none" xmlns="http://www.w3.org/2000/svg">
<mask id="mask0_237_5562" style="mask-type:alpha" maskUnits="userSpaceOnUse" x="0" y="0" width="30" height="30">
<rect width="30" height="30" fill="#D9D9D9"/>
</mask>
<g mask="url(#mask0_237_5562)">
<path d="M7.5 27.5C6.8125 27.5 6.22417 27.2554 5.735 26.7663C5.245 26.2763 5 25.6875 5 25V10C5 9.3125 5.245 8.72417 5.735 8.235C6.22417 7.745 6.8125 7.5 7.5 7.5H10C10 6.125 10.4896 4.94792 11.4688 3.96875C12.4479 2.98958 13.625 2.5 15 2.5C16.375 2.5 17.5521 2.98958 18.5312 3.96875C19.5104 4.94792 20 6.125 20 7.5H22.5C23.1875 7.5 23.7763 7.745 24.2663 8.235C24.7554 8.72417 25 9.3125 25 10V25C25 25.6875 24.7554 26.2763 24.2663 26.7663C23.7763 27.2554 23.1875 27.5 22.5 27.5H7.5ZM11.25 13.75C11.6042 13.75 11.9013 13.63 12.1413 13.39C12.3804 13.1508 12.5 12.8542 12.5 12.5V10H10V12.5C10 12.8542 10.12 13.1508 10.36 13.39C10.5992 13.63 10.8958 13.75 11.25 13.75ZM12.5 7.5H17.5C17.5 6.8125 17.2554 6.22417 16.7663 5.735C16.2763 5.245 15.6875 5 15 5C14.3125 5 13.7242 5.245 13.235 5.735C12.745 6.22417 12.5 6.8125 12.5 7.5ZM18.75 13.75C19.1042 13.75 19.4013 13.63 19.6413 13.39C19.8804 13.1508 20 12.8542 20 12.5V10H17.5V12.5C17.5 12.8542 17.62 13.1508 17.86 13.39C18.0992 13.63 18.3958 13.75 18.75 13.75Z" fill="white"/>
</g>
</svg>
