<svg width="86" height="14" viewBox="0 0 86 14" fill="none" xmlns="http://www.w3.org/2000/svg">
<path d="M6.39845 0.982472C6.64014 0.524398 7.29618 0.524397 7.53786 0.982472L9.18291 4.10041C9.27611 4.27706 9.44598 4.40049 9.64279 4.43454L13.1165 5.03557C13.6268 5.12387 13.8295 5.74781 13.4686 6.11921L11.0116 8.64724C10.8724 8.79047 10.8075 8.99017 10.8359 9.18787L11.3377 12.6773C11.4115 13.1899 10.8807 13.5755 10.4159 13.347L7.25238 11.7915C7.07315 11.7033 6.86317 11.7033 6.68393 11.7915L3.52038 13.347C3.05561 13.5755 2.52486 13.1899 2.59858 12.6773L3.10039 9.18787C3.12882 8.99017 3.06394 8.79047 2.92473 8.64724L0.467743 6.11921C0.106772 5.74781 0.3095 5.12387 0.819838 5.03557L4.29352 4.43454C4.49033 4.40049 4.66021 4.27706 4.75341 4.10041L6.39845 0.982472Z" fill="#FF7100"/>
<path d="M42.1429 1.03952C42.3812 0.568206 43.0542 0.568207 43.2925 1.03952L44.8371 4.09425C44.9282 4.27452 45.0987 4.4016 45.2975 4.43749L48.6017 5.03406C49.1032 5.12461 49.306 5.73407 48.9586 6.10697L46.5896 8.65045C46.4577 8.79212 46.3964 8.98562 46.4229 9.17741L46.9028 12.6596C46.9739 13.176 46.4344 13.5586 45.9706 13.3207L43.0117 11.8025C42.8272 11.7078 42.6082 11.7078 42.4237 11.8025L39.4648 13.3207C39.001 13.5586 38.4615 13.176 38.5326 12.6596L39.0125 9.17741C39.039 8.98562 38.9777 8.79212 38.8458 8.65045L36.4768 6.10697C36.1294 5.73407 36.3322 5.12461 36.8337 5.03406L40.1379 4.43749C40.3367 4.4016 40.5072 4.27452 40.5983 4.09425L42.1429 1.03952Z" fill="#FF7100"/>
<path d="M24.4342 0.982472C24.6759 0.524398 25.3319 0.524397 25.5736 0.982472L27.2187 4.10041C27.3119 4.27706 27.4818 4.40049 27.6786 4.43454L31.1522 5.03557C31.6626 5.12387 31.8653 5.74781 31.5043 6.11921L29.0474 8.64724C28.9081 8.79047 28.8433 8.99017 28.8717 9.18787L29.3735 12.6773C29.4472 13.1899 28.9165 13.5755 28.4517 13.347L25.2881 11.7915C25.1089 11.7033 24.8989 11.7033 24.7197 11.7915L21.5562 13.347C21.0914 13.5755 20.5606 13.1899 20.6344 12.6773L21.1362 9.18787C21.1646 8.99017 21.0997 8.79047 20.9605 8.64724L18.5035 6.11921C18.1425 5.74781 18.3453 5.12387 18.8556 5.03557L22.3293 4.43454C22.5261 4.40049 22.696 4.27706 22.7892 4.10041L24.4342 0.982472Z" fill="#FF7100"/>
<path d="M59.8617 0.982472C60.1034 0.524398 60.7595 0.524397 61.0011 0.982472L62.6462 4.10041C62.7394 4.27706 62.9093 4.40049 63.1061 4.43454L66.5798 5.03557C67.0901 5.12387 67.2928 5.74781 66.9319 6.11921L64.4749 8.64724C64.3357 8.79047 64.2708 8.99017 64.2992 9.18787L64.801 12.6773C64.8747 13.1899 64.344 13.5755 63.8792 13.347L60.7157 11.7915C60.5364 11.7033 60.3264 11.7033 60.1472 11.7915L56.9837 13.347C56.5189 13.5755 55.9881 13.1899 56.0619 12.6773L56.5637 9.18787C56.5921 8.99017 56.5272 8.79047 56.388 8.64724L53.931 6.11921C53.5701 5.74781 53.7728 5.12387 54.2831 5.03557L57.7568 4.43454C57.9536 4.40049 58.1235 4.27706 58.2167 4.10041L59.8617 0.982472Z" fill="#FF7100"/>
<path d="M77.8975 0.982472C78.1392 0.524398 78.7952 0.524397 79.0369 0.982472L80.682 4.10041C80.7752 4.27706 80.9451 4.40049 81.1419 4.43454L84.6155 5.03557C85.1259 5.12387 85.3286 5.74781 84.9676 6.11921L82.5107 8.64724C82.3714 8.79047 82.3066 8.99017 82.335 9.18787L82.8368 12.6773C82.9105 13.1899 82.3798 13.5755 81.915 13.347L78.7515 11.7915C78.5722 11.7033 78.3622 11.7033 78.183 11.7915L75.0195 13.347C74.5547 13.5755 74.0239 13.1899 74.0977 12.6773L74.5995 9.18787C74.6279 8.99017 74.563 8.79047 74.4238 8.64724L71.9668 6.11921C71.6058 5.74781 71.8086 5.12387 72.3189 5.03557L75.7926 4.43454C75.9894 4.40049 76.1593 4.27706 76.2525 4.10041L77.8975 0.982472Z" fill="url(#paint0_linear_256_5158)"/>
<defs>
<linearGradient id="paint0_linear_256_5158" x1="70.7376" y1="7.63225" x2="106.487" y2="7.63225" gradientUnits="userSpaceOnUse">
<stop stop-color="#FF7100"/>
<stop offset="0.213217" stop-color="#FF7100" stop-opacity="0.550036"/>
<stop offset="0.264228" stop-color="#FF7100" stop-opacity="0.114895"/>
<stop offset="0.41845" stop-color="#FF7100" stop-opacity="0.101244"/>
<stop offset="0.863321" stop-color="#FF7100" stop-opacity="0"/>
</linearGradient>
</defs>
</svg>
