<svg width="30" height="30" viewBox="0 0 30 30" fill="none" xmlns="http://www.w3.org/2000/svg">
<mask id="mask0_256_5392" style="mask-type:alpha" maskUnits="userSpaceOnUse" x="0" y="0" width="30" height="30">
<rect width="30" height="30" fill="#D9D9D9"/>
</mask>
<g mask="url(#mask0_256_5392)">
<path d="M7.5 28.75V17.5H5C4.125 17.5 3.38542 17.1979 2.78125 16.5938C2.17708 15.9896 1.875 15.25 1.875 14.375C1.875 13.5 2.17708 12.7604 2.78125 12.1562C3.38542 11.5521 4.125 11.25 5 11.25H7.5V10H5C4.125 10 3.38542 9.69792 2.78125 9.09375C2.17708 8.48958 1.875 7.75 1.875 6.875C1.875 6 2.17708 5.26042 2.78125 4.65625C3.38542 4.05208 4.125 3.75 5 3.75H7.5V1.25H10V3.75H12.5C13.375 3.75 14.1146 4.05208 14.7188 4.65625C15.3229 5.26042 15.625 6 15.625 6.875C15.625 7.75 15.3229 8.48958 14.7188 9.09375C14.1146 9.69792 13.375 10 12.5 10H10V11.25H12.5C13.375 11.25 14.1146 11.5521 14.7188 12.1562C15.3229 12.7604 15.625 13.5 15.625 14.375C15.625 15.25 15.3229 15.9896 14.7188 16.5938C14.1146 17.1979 13.375 17.5 12.5 17.5H10V28.75H7.5ZM18.75 28.75V26.25H21.25V17.3125C20.1667 17.0208 19.2708 16.4375 18.5625 15.5625C17.8542 14.6875 17.5 13.6667 17.5 12.5V1.25H27.5V12.5C27.5 13.6667 27.1458 14.6875 26.4375 15.5625C25.7292 16.4375 24.8333 17.0208 23.75 17.3125V26.25H26.25V28.75H18.75ZM20 7.5H25V3.75H20V7.5Z" fill="#1C1B1F"/>
</g>
</svg>
