<svg width="25" height="25" viewBox="0 0 25 25" fill="none" xmlns="http://www.w3.org/2000/svg">
<mask id="mask0_254_5821" style="mask-type:alpha" maskUnits="userSpaceOnUse" x="0" y="0" width="25" height="25">
<rect width="25" height="25" fill="#D9D9D9"/>
</mask>
<g mask="url(#mask0_254_5821)">
<path d="M12.5 18.7499C14.2361 18.7499 15.7118 18.1423 16.9271 16.927C18.1424 15.7117 18.75 14.236 18.75 12.4999C18.75 10.7638 18.1424 9.28811 16.9271 8.07284C15.7118 6.85756 14.2361 6.24992 12.5 6.24992V12.4999L8.07292 16.927C8.68056 17.4999 9.36215 17.9471 10.1177 18.2687C10.8726 18.5895 11.6667 18.7499 12.5 18.7499ZM12.5 22.9166C11.059 22.9166 9.70486 22.643 8.4375 22.0958C7.17014 21.5492 6.06771 20.8072 5.13021 19.8697C4.19271 18.9322 3.45069 17.8298 2.90417 16.5624C2.35694 15.2951 2.08333 13.9409 2.08333 12.4999C2.08333 11.0589 2.35694 9.70478 2.90417 8.43742C3.45069 7.17006 4.19271 6.06763 5.13021 5.13013C6.06771 4.19263 7.17014 3.45027 8.4375 2.90304C9.70486 2.35652 11.059 2.08325 12.5 2.08325C13.941 2.08325 15.2951 2.35652 16.5625 2.90304C17.8299 3.45027 18.9323 4.19263 19.8698 5.13013C20.8073 6.06763 21.5493 7.17006 22.0958 8.43742C22.6431 9.70478 22.9167 11.0589 22.9167 12.4999C22.9167 13.9409 22.6431 15.2951 22.0958 16.5624C21.5493 17.8298 20.8073 18.9322 19.8698 19.8697C18.9323 20.8072 17.8299 21.5492 16.5625 22.0958C15.2951 22.643 13.941 22.9166 12.5 22.9166ZM12.5 20.8333C14.8264 20.8333 16.7969 20.026 18.4115 18.4114C20.026 16.7968 20.8333 14.8263 20.8333 12.4999C20.8333 10.1735 20.026 8.20304 18.4115 6.58846C16.7969 4.97388 14.8264 4.16659 12.5 4.16659C10.1736 4.16659 8.20312 4.97388 6.58854 6.58846C4.97396 8.20304 4.16667 10.1735 4.16667 12.4999C4.16667 14.8263 4.97396 16.7968 6.58854 18.4114C8.20312 20.026 10.1736 20.8333 12.5 20.8333Z" fill="#1C1B1F"/>
</g>
</svg>
