<svg width="25" height="25" viewBox="0 0 25 25" fill="none" xmlns="http://www.w3.org/2000/svg">
<mask id="mask0_283_6927" style="mask-type:alpha" maskUnits="userSpaceOnUse" x="0" y="0" width="25" height="25">
<rect width="25" height="25" fill="#D9D9D9"/>
</mask>
<g mask="url(#mask0_283_6927)">
<path d="M9.375 17.1875C8.64583 17.1875 8.02951 16.9358 7.52604 16.4323C7.02257 15.9288 6.77083 15.3125 6.77083 14.5833C6.77083 13.8542 7.02257 13.2379 7.52604 12.7344C8.02951 12.2309 8.64583 11.9792 9.375 11.9792C10.1042 11.9792 10.7205 12.2309 11.224 12.7344C11.7274 13.2379 11.9792 13.8542 11.9792 14.5833C11.9792 15.3125 11.7274 15.9288 11.224 16.4323C10.7205 16.9358 10.1042 17.1875 9.375 17.1875ZM5.20833 22.9167C4.63542 22.9167 4.14479 22.7129 3.73646 22.3052C3.32882 21.8969 3.125 21.4063 3.125 20.8333V6.25001C3.125 5.67709 3.32882 5.18682 3.73646 4.77918C4.14479 4.37084 4.63542 4.16668 5.20833 4.16668H6.25V2.08334H8.33333V4.16668H16.6667V2.08334H18.75V4.16668H19.7917C20.3646 4.16668 20.8552 4.37084 21.2635 4.77918C21.6712 5.18682 21.875 5.67709 21.875 6.25001V20.8333C21.875 21.4063 21.6712 21.8969 21.2635 22.3052C20.8552 22.7129 20.3646 22.9167 19.7917 22.9167H5.20833ZM5.20833 20.8333H19.7917V10.4167H5.20833V20.8333Z" fill="#1C1B1F"/>
</g>
</svg>
